<?xml version="1.0" ?><svg viewBox="0 0 25 25" xmlns="http://www.w3.org/2000/svg"><defs><style>.cls-1{fill:#525967;}.cls-2{fill:#454b57;}.cls-3{fill:#0acf83;}.cls-4{fill:#a259ff;}.cls-5{fill:#f24e1e;}.cls-6{fill:#ff7262;}.cls-7{fill:#1abcfe;}.cls-8{fill:none;}</style></defs><title/><g data-name="Layer 2" id="Layer_2"><g data-name="Layer 1 copy" id="Layer_1_copy"><g data-name="Figma icon" id="Figma_icon"><g data-name="ads manager" id="ads_manager"><rect class="cls-1" height="13.72" rx="2" ry="2" width="13.72" x="5.64" y="5.64"/><path class="cls-2" d="M17.36,6.24a1.4,1.4,0,0,1,1.4,1.4v9.72a1.4,1.4,0,0,1-1.4,1.4H7.64a1.4,1.4,0,0,1-1.4-1.4V7.64a1.4,1.4,0,0,1,1.4-1.4h9.72m0-.6H7.64a2,2,0,0,0-2,2v9.72a2,2,0,0,0,2,2h9.72a2,2,0,0,0,2-2V7.64a2,2,0,0,0-2-2Z"/><path class="cls-3" d="M10.79,17.63a1.71,1.71,0,0,0,1.71-1.71V14.21H10.79a1.71,1.71,0,1,0,0,3.42Z" data-name="path0 fill" id="path0_fill"/><path class="cls-4" d="M9.08,12.5a1.71,1.71,0,0,1,1.71-1.71H12.5v3.42H10.79A1.71,1.71,0,0,1,9.08,12.5Z" data-name="path1 fill" id="path1_fill"/><path class="cls-5" d="M9.08,9.08a1.71,1.71,0,0,1,1.71-1.71H12.5v3.42H10.79A1.71,1.71,0,0,1,9.08,9.08Z" data-name="path1 fill" id="path1_fill-2"/><path class="cls-6" d="M12.5,7.38h1.71a1.71,1.71,0,1,1,0,3.42H12.5Z" data-name="path2 fill" id="path2_fill"/><path class="cls-7" d="M15.92,12.5a1.71,1.71,0,1,1-1.71-1.71A1.71,1.71,0,0,1,15.92,12.5Z" data-name="path3 fill" id="path3_fill"/></g><rect class="cls-8" height="25" width="25"/></g></g></g></svg>