<svg xmlns="http://www.w3.org/2000/svg" xmlns:xlink="http://www.w3.org/1999/xlink" viewBox="0,0,256,256" width="192px" height="192px"><g transform="translate(25.6,25.6) scale(0.8,0.8)"><g fill="#3355ed" fill-rule="nonzero" stroke="none" stroke-width="1" stroke-linecap="butt" stroke-linejoin="miter" stroke-miterlimit="10" stroke-dasharray="" stroke-dashoffset="0" font-family="none" font-weight="none" font-size="none" text-anchor="none" style="mix-blend-mode: normal"><path d="M-32,288v-320h320v320z" id="bgRectangle"></path></g><g fill="#00c5f1" fill-rule="nonzero" stroke="none" stroke-width="1" stroke-linecap="butt" stroke-linejoin="miter" stroke-miterlimit="10" stroke-dasharray="" stroke-dashoffset="0" font-family="none" font-weight="none" font-size="none" text-anchor="none" style="mix-blend-mode: normal"><g transform="scale(10.66667,10.66667)"><path d="M23.395,7.081c-0.488,-0.207 -1.053,-0.002 -1.29,0.472c-0.224,0.448 -0.523,0.723 -0.914,0.838c-0.612,0.183 -1.343,-0.052 -1.685,-0.253c-0.451,-0.265 -0.974,-0.667 -1.527,-1.092c-1.765,-1.358 -3.961,-3.046 -6.979,-3.046c-2.414,0 -3.654,1.239 -5.707,3.293c-0.391,0.391 -0.394,1.027 -0.003,1.417c0.38,0.382 0.99,0.394 1.382,0.03c0.01,-0.009 0.02,-0.019 0.03,-0.028c0.552,-0.426 4.03,-0.012 5.55,1.196c2.259,1.795 3.89,3.092 5.748,3.092c2.659,0 4.879,-1.741 5.94,-4.658c0.181,-0.498 -0.058,-1.051 -0.545,-1.261zM18.395,14.081c-0.488,-0.207 -1.053,-0.002 -1.29,0.472c-0.224,0.448 -0.523,0.723 -0.914,0.838c-0.612,0.18 -1.343,-0.052 -1.685,-0.253c-0.451,-0.265 -0.974,-0.667 -1.527,-1.092c-1.765,-1.358 -3.961,-3.046 -6.979,-3.046c-2.414,0 -3.654,1.239 -5.707,3.293c-0.391,0.391 -0.394,1.027 -0.003,1.417c0.38,0.382 0.991,0.395 1.383,0.03c0.01,-0.009 0.02,-0.019 0.03,-0.028c0.551,-0.426 4.031,-0.012 5.55,1.196c2.258,1.795 3.889,3.092 5.747,3.092c2.659,0 4.879,-1.741 5.94,-4.658c0.181,-0.498 -0.058,-1.051 -0.545,-1.261z"></path></g></g></g></svg>