<svg xmlns="http://www.w3.org/2000/svg" xmlns:xlink="http://www.w3.org/1999/xlink" viewBox="0,0,256,256" width="192px" height="192px"><g transform="translate(25.6,25.6) scale(0.8,0.8)"><g fill="#3355ed" fill-rule="nonzero" stroke="none" stroke-width="1" stroke-linecap="butt" stroke-linejoin="miter" stroke-miterlimit="10" stroke-dasharray="" stroke-dashoffset="0" font-family="none" font-weight="none" font-size="none" text-anchor="none" style="mix-blend-mode: normal"><path d="M-32,288v-320h320v320z" id="bgRectangle"></path></g><g fill="none" fill-rule="nonzero" stroke="none" stroke-width="1" stroke-linecap="butt" stroke-linejoin="none" stroke-miterlimit="10" stroke-dasharray="" stroke-dashoffset="0" font-family="none" font-weight="none" font-size="none" text-anchor="none" style="mix-blend-mode: normal"><path transform="scale(10.66667,10.66667)" d="M23.94,8.342c-1.061,2.917 -3.281,4.658 -5.94,4.658c-1.858,0 -3.489,-1.297 -5.748,-3.092c-1.52,-1.208 -4.998,-1.622 -5.55,-1.196c-0.01,0.009 -0.02,0.019 -0.03,0.028c-0.392,0.364 -1.002,0.352 -1.382,-0.03c-0.391,-0.39 -0.388,-1.026 0.003,-1.417c2.053,-2.054 3.293,-3.293 5.707,-3.293c3.018,0 5.214,1.688 6.979,3.046c0.553,0.425 1.076,0.827 1.527,1.092c0.342,0.201 1.073,0.436 1.685,0.253c0.391,-0.115 0.69,-0.39 0.914,-0.838c0.237,-0.474 0.802,-0.679 1.29,-0.472c0.487,0.21 0.726,0.763 0.545,1.261zM18.94,15.342c-1.061,2.917 -3.281,4.658 -5.94,4.658c-1.858,0 -3.489,-1.297 -5.747,-3.092c-1.519,-1.208 -4.999,-1.622 -5.55,-1.196c-0.01,0.009 -0.02,0.019 -0.03,0.028c-0.392,0.365 -1.003,0.352 -1.383,-0.03c-0.391,-0.39 -0.388,-1.026 0.003,-1.417c2.053,-2.054 3.293,-3.293 5.707,-3.293c3.018,0 5.214,1.688 6.979,3.046c0.553,0.425 1.076,0.827 1.527,1.092c0.342,0.201 1.073,0.433 1.685,0.253c0.391,-0.115 0.69,-0.39 0.914,-0.838c0.237,-0.474 0.802,-0.679 1.29,-0.472c0.487,0.21 0.726,0.763 0.545,1.261z" id="strokeMainSVG" fill="#35e9e2" stroke="#35e9e2" stroke-linejoin="round"></path><g transform="scale(10.66667,10.66667)" fill="#00c5f1" stroke="none" stroke-linejoin="miter"><path d="M23.395,7.081c-0.488,-0.207 -1.053,-0.002 -1.29,0.472c-0.224,0.448 -0.523,0.723 -0.914,0.838c-0.612,0.183 -1.343,-0.052 -1.685,-0.253c-0.451,-0.265 -0.974,-0.667 -1.527,-1.092c-1.765,-1.358 -3.961,-3.046 -6.979,-3.046c-2.414,0 -3.654,1.239 -5.707,3.293c-0.391,0.391 -0.394,1.027 -0.003,1.417c0.38,0.382 0.99,0.394 1.382,0.03c0.01,-0.009 0.02,-0.019 0.03,-0.028c0.552,-0.426 4.03,-0.012 5.55,1.196c2.259,1.795 3.89,3.092 5.748,3.092c2.659,0 4.879,-1.741 5.94,-4.658c0.181,-0.498 -0.058,-1.051 -0.545,-1.261zM18.395,14.081c-0.488,-0.207 -1.053,-0.002 -1.29,0.472c-0.224,0.448 -0.523,0.723 -0.914,0.838c-0.612,0.18 -1.343,-0.052 -1.685,-0.253c-0.451,-0.265 -0.974,-0.667 -1.527,-1.092c-1.765,-1.358 -3.961,-3.046 -6.979,-3.046c-2.414,0 -3.654,1.239 -5.707,3.293c-0.391,0.391 -0.394,1.027 -0.003,1.417c0.38,0.382 0.991,0.395 1.383,0.03c0.01,-0.009 0.02,-0.019 0.03,-0.028c0.551,-0.426 4.031,-0.012 5.55,1.196c2.258,1.795 3.889,3.092 5.747,3.092c2.659,0 4.879,-1.741 5.94,-4.658c0.181,-0.498 -0.058,-1.051 -0.545,-1.261z"></path></g></g></g></svg>