<svg xmlns="http://www.w3.org/2000/svg" xmlns:xlink="http://www.w3.org/1999/xlink" viewBox="0,0,256,256" width="192px" height="192px"><g fill="#0b00f1" fill-rule="nonzero" stroke="none" stroke-width="1" stroke-linecap="butt" stroke-linejoin="miter" stroke-miterlimit="10" stroke-dasharray="" stroke-dashoffset="0" font-family="none" font-weight="none" font-size="none" text-anchor="none" style="mix-blend-mode: normal"><g transform="scale(10.66667,10.66667)"><path d="M3,3v18h18v-18zM13.666,12.451h-2.118v6.549h-1.707v-6.549h-2.074v-1.451h5.899zM13.998,18.626v-1.751c0,0 0.956,0.721 2.104,0.721c1.148,0 1.103,-0.75 1.103,-0.853c0,-1.089 -3.251,-1.089 -3.251,-3.501c0,-3.281 4.737,-1.986 4.737,-1.986l-0.059,1.559c0,0 -0.794,-0.53 -1.692,-0.53c-0.897,0 -1.221,0.427 -1.221,0.883c0,1.177 3.281,1.059 3.281,3.428c0,3.648 -5.002,2.03 -5.002,2.03z"></path></g></g></svg>